<svg xmlns="http://www.w3.org/2000/svg" viewBox="0 0 1180 640" font-family="system-ui"><style>.link{opacity:.5}.link:hover{opacity:.85}text{font-family:system-ui,sans-serif}.lbl{font-size:13px}.stage{font-size:13px;font-weight:600;letter-spacing:.04em}</style><rect width="1180" height="640" fill="#ffffff"/><g><path class="link" d="M84.0,70.0 C205.2,70.0 205.2,70.0 326.5,70.0 L326.5,164.9 C205.2,164.9 205.2,171.1 84.0,171.1 Z" fill="#2a78d6"><title>Symptomatischer Workup → Low · Low: 26 Pat.</title></path><path class="link" d="M84.0,171.1 C205.2,171.1 205.2,258.9 326.5,258.9 L326.5,401.3 C205.2,401.3 205.2,322.8 84.0,322.8 Z" fill="#eb6834"><title>Symptomatischer Workup → Intermediate · Intermediate: 39 Pat.</title></path><path class="link" d="M84.0,322.8 C205.2,322.8 205.2,411.3 326.5,411.3 L326.5,466.0 C205.2,466.0 205.2,381.1 84.0,381.1 Z" fill="#1baf7a"><title>Symptomatischer Workup → High · High: 15 Pat.</title></path><path class="link" d="M84.0,381.1 C205.2,381.1 205.2,476.0 326.5,476.0 L326.5,530.8 C205.2,530.8 205.2,439.4 84.0,439.4 Z" fill="#eda100"><title>Symptomatischer Workup → Lokal fortgeschritten · Lokal fortgeschritten: 15 Pat.</title></path><path class="link" d="M84.0,439.4 C205.2,439.4 205.2,540.8 326.5,540.8 L326.5,570.0 C205.2,570.0 205.2,470.6 84.0,470.6 Z" fill="#e87ba4"><title>Symptomatischer Workup → Metastasiert · Metastasiert: 8 Pat.</title></path><path class="link" d="M84.0,480.6 C205.2,480.6 205.2,164.9 326.5,164.9 L326.5,248.9 C205.2,248.9 205.2,570.0 84.0,570.0 Z" fill="#2a78d6"><title>TURP-inzidental → Low · Low: 23 Pat.</title></path><path class="link" d="M340.5,70.0 C461.8,70.0 461.8,70.0 583.0,70.0 L583.0,252.8 C461.8,252.8 461.8,248.9 340.5,248.9 Z" fill="#2a78d6"><title>Low → Active Surveillance · Low: 49 Pat.</title></path><path class="link" d="M340.5,258.9 C461.8,258.9 461.8,262.8 583.0,262.8 L583.0,371.0 C461.8,371.0 461.8,364.8 340.5,364.8 Z" fill="#eb6834"><title>Intermediate → Radikale Prostatektomie · Intermediate: 29 Pat.</title></path><path class="link" d="M340.5,364.8 C461.8,364.8 461.8,455.6 583.0,455.6 L583.0,492.9 C461.8,492.9 461.8,401.3 340.5,401.3 Z" fill="#eb6834"><title>Intermediate → Radiotherapie (+ADT) · Intermediate: 10 Pat.</title></path><path class="link" d="M340.5,411.3 C461.8,411.3 461.8,371.0 583.0,371.0 L583.0,400.8 C461.8,400.8 461.8,440.5 340.5,440.5 Z" fill="#1baf7a"><title>High → Radikale Prostatektomie · High: 8 Pat.</title></path><path class="link" d="M340.5,440.5 C461.8,440.5 461.8,492.9 583.0,492.9 L583.0,519.0 C461.8,519.0 461.8,466.0 340.5,466.0 Z" fill="#1baf7a"><title>High → Radiotherapie (+ADT) · High: 7 Pat.</title></path><path class="link" d="M340.5,476.0 C461.8,476.0 461.8,400.8 583.0,400.8 L583.0,445.6 C461.8,445.6 461.8,519.8 340.5,519.8 Z" fill="#eda100"><title>Lokal fortgeschritten → Radikale Prostatektomie · Lokal fortgeschritten: 12 Pat.</title></path><path class="link" d="M340.5,519.8 C461.8,519.8 461.8,519.0 583.0,519.0 L583.0,530.2 C461.8,530.2 461.8,530.8 340.5,530.8 Z" fill="#eda100"><title>Lokal fortgeschritten → Radiotherapie (+ADT) · Lokal fortgeschritten: 3 Pat.</title></path><path class="link" d="M340.5,540.8 C461.8,540.8 461.8,540.2 583.0,540.2 L583.0,570.0 C461.8,570.0 461.8,570.0 340.5,570.0 Z" fill="#e87ba4"><title>Metastasiert → Systemtherapie (M1) · Metastasiert: 8 Pat.</title></path><path class="link" d="M597.0,70.0 C718.2,70.0 718.2,70.0 839.5,70.0 L839.5,252.8 C718.2,252.8 718.2,245.3 597.0,245.3 Z" fill="#2a78d6"><title>Active Surveillance → Stabil · Low: 47 Pat.</title></path><path class="link" d="M597.0,245.3 C718.2,245.3 718.2,480.6 839.5,480.6 L839.5,488.3 C718.2,488.3 718.2,252.8 597.0,252.8 Z" fill="#2a78d6"><title>Active Surveillance → Rezidiv/Progression · Low: 2 Pat.</title></path><path class="link" d="M597.0,262.8 C718.2,262.8 718.2,252.8 839.5,252.8 L839.5,346.1 C718.2,346.1 718.2,352.3 597.0,352.3 Z" fill="#eb6834"><title>Radikale Prostatektomie → Stabil · Intermediate: 24 Pat.</title></path><path class="link" d="M597.0,352.3 C718.2,352.3 718.2,346.1 839.5,346.1 L839.5,361.7 C718.2,361.7 718.2,367.2 597.0,367.2 Z" fill="#1baf7a"><title>Radikale Prostatektomie → Stabil · High: 4 Pat.</title></path><path class="link" d="M597.0,367.2 C718.2,367.2 718.2,361.7 839.5,361.7 L839.5,392.8 C718.2,392.8 718.2,397.1 597.0,397.1 Z" fill="#eda100"><title>Radikale Prostatektomie → Stabil · Lokal fortgeschritten: 8 Pat.</title></path><path class="link" d="M597.0,397.1 C718.2,397.1 718.2,488.3 839.5,488.3 L839.5,507.8 C718.2,507.8 718.2,415.7 597.0,415.7 Z" fill="#eb6834"><title>Radikale Prostatektomie → Rezidiv/Progression · Intermediate: 5 Pat.</title></path><path class="link" d="M597.0,415.7 C718.2,415.7 718.2,507.8 839.5,507.8 L839.5,523.3 C718.2,523.3 718.2,430.6 597.0,430.6 Z" fill="#1baf7a"><title>Radikale Prostatektomie → Rezidiv/Progression · High: 4 Pat.</title></path><path class="link" d="M597.0,430.6 C718.2,430.6 718.2,523.3 839.5,523.3 L839.5,538.9 C718.2,538.9 718.2,445.6 597.0,445.6 Z" fill="#eda100"><title>Radikale Prostatektomie → Rezidiv/Progression · Lokal fortgeschritten: 4 Pat.</title></path><path class="link" d="M597.0,455.6 C718.2,455.6 718.2,392.8 839.5,392.8 L839.5,431.7 C718.2,431.7 718.2,492.9 597.0,492.9 Z" fill="#eb6834"><title>Radiotherapie (+ADT) → Stabil · Intermediate: 10 Pat.</title></path><path class="link" d="M597.0,492.9 C718.2,492.9 718.2,431.7 839.5,431.7 L839.5,458.9 C718.2,458.9 718.2,519.0 597.0,519.0 Z" fill="#1baf7a"><title>Radiotherapie (+ADT) → Stabil · High: 7 Pat.</title></path><path class="link" d="M597.0,519.0 C718.2,519.0 718.2,458.9 839.5,458.9 L839.5,470.6 C718.2,470.6 718.2,530.2 597.0,530.2 Z" fill="#eda100"><title>Radiotherapie (+ADT) → Stabil · Lokal fortgeschritten: 3 Pat.</title></path><path class="link" d="M597.0,540.2 C718.2,540.2 718.2,538.9 839.5,538.9 L839.5,570.0 C718.2,570.0 718.2,570.0 597.0,570.0 Z" fill="#e87ba4"><title>Systemtherapie (M1) → Rezidiv/Progression · Metastasiert: 8 Pat.</title></path><path class="link" d="M853.5,70.0 C974.8,70.0 974.8,70.0 1096.0,70.0 L1096.0,248.9 C974.8,248.9 974.8,248.9 853.5,248.9 Z" fill="#2a78d6"><title>Stabil → Lebt · Low: 46 Pat.</title></path><path class="link" d="M853.5,248.9 C974.8,248.9 974.8,248.9 1096.0,248.9 L1096.0,381.1 C974.8,381.1 974.8,381.1 853.5,381.1 Z" fill="#eb6834"><title>Stabil → Lebt · Intermediate: 34 Pat.</title></path><path class="link" d="M853.5,381.1 C974.8,381.1 974.8,381.1 1096.0,381.1 L1096.0,423.9 C974.8,423.9 974.8,423.9 853.5,423.9 Z" fill="#1baf7a"><title>Stabil → Lebt · High: 11 Pat.</title></path><path class="link" d="M853.5,423.9 C974.8,423.9 974.8,423.9 1096.0,423.9 L1096.0,462.8 C974.8,462.8 974.8,462.8 853.5,462.8 Z" fill="#eda100"><title>Stabil → Lebt · Lokal fortgeschritten: 10 Pat.</title></path><path class="link" d="M853.5,462.8 C974.8,462.8 974.8,550.6 1096.0,550.6 L1096.0,554.4 C974.8,554.4 974.8,466.7 853.5,466.7 Z" fill="#2a78d6"><title>Stabil → Verstorben · Low: 1 Pat.</title></path><path class="link" d="M853.5,466.7 C974.8,466.7 974.8,554.4 1096.0,554.4 L1096.0,558.3 C974.8,558.3 974.8,470.6 853.5,470.6 Z" fill="#eda100"><title>Stabil → Verstorben · Lokal fortgeschritten: 1 Pat.</title></path><path class="link" d="M853.5,480.6 C974.8,480.6 974.8,462.8 1096.0,462.8 L1096.0,470.6 C974.8,470.6 974.8,488.3 853.5,488.3 Z" fill="#2a78d6"><title>Rezidiv/Progression → Lebt · Low: 2 Pat.</title></path><path class="link" d="M853.5,488.3 C974.8,488.3 974.8,470.6 1096.0,470.6 L1096.0,490.0 C974.8,490.0 974.8,507.8 853.5,507.8 Z" fill="#eb6834"><title>Rezidiv/Progression → Lebt · Intermediate: 5 Pat.</title></path><path class="link" d="M853.5,507.8 C974.8,507.8 974.8,490.0 1096.0,490.0 L1096.0,501.7 C974.8,501.7 974.8,519.4 853.5,519.4 Z" fill="#1baf7a"><title>Rezidiv/Progression → Lebt · High: 3 Pat.</title></path><path class="link" d="M853.5,519.4 C974.8,519.4 974.8,501.7 1096.0,501.7 L1096.0,517.2 C974.8,517.2 974.8,535.0 853.5,535.0 Z" fill="#eda100"><title>Rezidiv/Progression → Lebt · Lokal fortgeschritten: 4 Pat.</title></path><path class="link" d="M853.5,535.0 C974.8,535.0 974.8,517.2 1096.0,517.2 L1096.0,540.6 C974.8,540.6 974.8,558.3 853.5,558.3 Z" fill="#e87ba4"><title>Rezidiv/Progression → Lebt · Metastasiert: 6 Pat.</title></path><path class="link" d="M853.5,558.3 C974.8,558.3 974.8,558.3 1096.0,558.3 L1096.0,562.2 C974.8,562.2 974.8,562.2 853.5,562.2 Z" fill="#1baf7a"><title>Rezidiv/Progression → Verstorben · High: 1 Pat.</title></path><path class="link" d="M853.5,562.2 C974.8,562.2 974.8,562.2 1096.0,562.2 L1096.0,570.0 C974.8,570.0 974.8,570.0 853.5,570.0 Z" fill="#e87ba4"><title>Rezidiv/Progression → Verstorben · Metastasiert: 2 Pat.</title></path></g><g><rect x="70.0" y="70.0" width="14" height="400.6" rx="3" fill="#1a1a19" fill-opacity="0.82"><title>Symptomatischer Workup: 103 Pat.</title></rect><rect x="70.0" y="480.6" width="14" height="89.4" rx="3" fill="#1a1a19" fill-opacity="0.82"><title>TURP-inzidental: 23 Pat.</title></rect><rect x="326.5" y="70.0" width="14" height="178.9" rx="3" fill="#1a1a19" fill-opacity="0.82"><title>Low: 49 Pat.</title></rect><rect x="326.5" y="258.9" width="14" height="142.4" rx="3" fill="#1a1a19" fill-opacity="0.82"><title>Intermediate: 39 Pat.</title></rect><rect x="326.5" y="411.3" width="14" height="54.8" rx="3" fill="#1a1a19" fill-opacity="0.82"><title>High: 15 Pat.</title></rect><rect x="326.5" y="476.0" width="14" height="54.8" rx="3" fill="#1a1a19" fill-opacity="0.82"><title>Lokal fortgeschritten: 15 Pat.</title></rect><rect x="326.5" y="540.8" width="14" height="29.2" rx="3" fill="#1a1a19" fill-opacity="0.82"><title>Metastasiert: 8 Pat.</title></rect><rect x="583.0" y="70.0" width="14" height="182.8" rx="3" fill="#1a1a19" fill-opacity="0.82"><title>Active Surveillance: 49 Pat.</title></rect><rect x="583.0" y="262.8" width="14" height="182.8" rx="3" fill="#1a1a19" fill-opacity="0.82"><title>Radikale Prostatektomie: 49 Pat.</title></rect><rect x="583.0" y="455.6" width="14" height="74.6" rx="3" fill="#1a1a19" fill-opacity="0.82"><title>Radiotherapie (+ADT): 20 Pat.</title></rect><rect x="583.0" y="540.2" width="14" height="29.8" rx="3" fill="#1a1a19" fill-opacity="0.82"><title>Systemtherapie (M1): 8 Pat.</title></rect><rect x="839.5" y="70.0" width="14" height="400.6" rx="3" fill="#1a1a19" fill-opacity="0.82"><title>Stabil: 103 Pat.</title></rect><rect x="839.5" y="480.6" width="14" height="89.4" rx="3" fill="#1a1a19" fill-opacity="0.82"><title>Rezidiv/Progression: 23 Pat.</title></rect><rect x="1096.0" y="70.0" width="14" height="470.6" rx="3" fill="#1a1a19" fill-opacity="0.82"><title>Lebt: 121 Pat.</title></rect><rect x="1096.0" y="550.6" width="14" height="19.4" rx="3" fill="#1a1a19" fill-opacity="0.82"><title>Verstorben: 5 Pat.</title></rect></g><g><text x="77" y="42" text-anchor="middle" class="stage" fill="#5c5b52">Detektion</text><text x="92" y="274" text-anchor="start" class="lbl" fill="#1a1a19">Symptomatischer Workup <tspan fill="#5c5b52">103 · 82%</tspan></text><text x="92" y="529" text-anchor="start" class="lbl" fill="#1a1a19">TURP-inzidental <tspan fill="#5c5b52">23 · 18%</tspan></text><text x="334" y="42" text-anchor="middle" class="stage" fill="#5c5b52">Risikogruppe</text><text x="348" y="163" text-anchor="start" class="lbl" fill="#1a1a19">Low <tspan fill="#5c5b52">49 · 39%</tspan></text><text x="348" y="334" text-anchor="start" class="lbl" fill="#1a1a19">Intermediate <tspan fill="#5c5b52">39 · 31%</tspan></text><text x="348" y="443" text-anchor="start" class="lbl" fill="#1a1a19">High <tspan fill="#5c5b52">15 · 12%</tspan></text><text x="348" y="507" text-anchor="start" class="lbl" fill="#1a1a19">Lokal fortgeschritten <tspan fill="#5c5b52">15 · 12%</tspan></text><text x="348" y="559" text-anchor="start" class="lbl" fill="#1a1a19">Metastasiert <tspan fill="#5c5b52">8 · 6%</tspan></text><text x="590" y="42" text-anchor="middle" class="stage" fill="#5c5b52">Primärtherapie</text><text x="605" y="165" text-anchor="start" class="lbl" fill="#1a1a19">Active Surveillance <tspan fill="#5c5b52">49 · 39%</tspan></text><text x="605" y="358" text-anchor="start" class="lbl" fill="#1a1a19">Radikale Prostatektomie <tspan fill="#5c5b52">49 · 39%</tspan></text><text x="605" y="497" text-anchor="start" class="lbl" fill="#1a1a19">Radiotherapie (+ADT) <tspan fill="#5c5b52">20 · 16%</tspan></text><text x="605" y="559" text-anchor="start" class="lbl" fill="#1a1a19">Systemtherapie (M1) <tspan fill="#5c5b52">8 · 6%</tspan></text><text x="846" y="42" text-anchor="middle" class="stage" fill="#5c5b52">Verlauf</text><text x="862" y="274" text-anchor="start" class="lbl" fill="#1a1a19">Stabil <tspan fill="#5c5b52">103 · 82%</tspan></text><text x="862" y="529" text-anchor="start" class="lbl" fill="#1a1a19">Rezidiv/Progression <tspan fill="#5c5b52">23 · 18%</tspan></text><text x="1103" y="42" text-anchor="middle" class="stage" fill="#5c5b52">Status</text><text x="1088" y="309" text-anchor="end" class="lbl" fill="#1a1a19">Lebt <tspan fill="#5c5b52">121 · 96%</tspan></text><text x="1088" y="564" text-anchor="end" class="lbl" fill="#1a1a19">Verstorben <tspan fill="#5c5b52">5 · 4%</tspan></text></g></svg>