<svg xmlns="http://www.w3.org/2000/svg" viewBox="0 0 1170 530" font-family="system-ui"><rect width="1170" height="530" fill="#ffffff"/><g transform="translate(0,0)"><text x="42" y="12" font-size="12" font-weight="600" fill="#1a1a19">Überweisung → Abklärung (DRE → TRUS)</text><text x="42" y="198" font-size="10" fill="#5c5b52">n=110 · median 35.0 Tage · x: Tage · gestrichelt = Soll</text><text x="42" y="210" font-size="10" fill="#5c5b52">gleichtägig ausgeblendet: 16 (benigner Erstworkup)</text><rect x="55.8" y="152.0" width="10.8" height="16.0" rx="2" fill="#2a78d6"><title>5.0–10.0 Tage: 2 Pat.</title></rect><rect x="68.7" y="136.0" width="10.8" height="32.0" rx="2" fill="#2a78d6"><title>10.0–15.0 Tage: 4 Pat.</title></rect><rect x="81.5" y="88.0" width="10.8" height="80.0" rx="2" fill="#2a78d6"><title>15.0–20.0 Tage: 10 Pat.</title></rect><rect x="94.3" y="136.0" width="10.8" height="32.0" rx="2" fill="#2a78d6"><title>20.0–25.0 Tage: 4 Pat.</title></rect><rect x="107.2" y="24.0" width="10.8" height="144.0" rx="2" fill="#2a78d6"><title>25.0–30.0 Tage: 18 Pat.</title></rect><rect x="120.0" y="64.0" width="10.8" height="104.0" rx="2" fill="#2a78d6"><title>30.0–35.0 Tage: 13 Pat.</title></rect><rect x="132.8" y="64.0" width="10.8" height="104.0" rx="2" fill="#2a78d6"><title>35.0–40.0 Tage: 13 Pat.</title></rect><rect x="145.7" y="112.0" width="10.8" height="56.0" rx="2" fill="#2a78d6"><title>40.0–45.0 Tage: 7 Pat.</title></rect><rect x="158.5" y="56.0" width="10.8" height="112.0" rx="2" fill="#2a78d6"><title>45.0–50.0 Tage: 14 Pat.</title></rect><rect x="171.3" y="112.0" width="10.8" height="56.0" rx="2" fill="#2a78d6"><title>50.0–55.0 Tage: 7 Pat.</title></rect><rect x="184.2" y="104.0" width="10.8" height="64.0" rx="2" fill="#2a78d6"><title>55.0–60.0 Tage: 8 Pat.</title></rect><rect x="197.0" y="160.0" width="10.8" height="8.0" rx="2" fill="#2a78d6"><title>60.0–65.0 Tage: 1 Pat.</title></rect><rect x="209.8" y="144.0" width="10.8" height="24.0" rx="2" fill="#2a78d6"><title>65.0–70.0 Tage: 3 Pat.</title></rect><rect x="222.7" y="144.0" width="10.8" height="24.0" rx="2" fill="#2a78d6"><title>70.0–75.0 Tage: 3 Pat.</title></rect><rect x="235.5" y="152.0" width="10.8" height="16.0" rx="2" fill="#2a78d6"><title>75.0–80.0 Tage: 2 Pat.</title></rect><rect x="261.2" y="160.0" width="10.8" height="8.0" rx="2" fill="#2a78d6"><title>85.0–90.0 Tage: 1 Pat.</title></rect><polyline points="60.0,168.0 63.1,160.5 66.2,153.0 69.3,145.5 72.5,138.0 75.6,130.5 78.7,122.9 81.8,115.4 84.9,107.9 88.1,100.4 91.2,92.9 94.3,85.4 97.4,77.9 100.6,70.4 103.7,62.9 106.8,55.4 109.9,47.9 113.1,40.4 116.2,40.6 119.3,43.7 122.4,46.7 125.5,49.7 128.7,52.8 131.8,55.8 134.9,58.8 138.0,61.9 141.2,64.9 144.3,67.9 147.4,71.0 150.5,74.0 153.6,77.0 156.8,80.1 159.9,83.1 163.0,86.1 166.1,89.2 169.3,92.2 172.4,95.2 175.5,98.3 178.6,101.3 181.8,104.3 184.9,107.4 188.0,110.4 191.1,113.4 194.2,116.5 197.4,119.5 200.5,122.5 203.6,125.5 206.7,128.6 209.9,131.6 213.0,134.6 216.1,137.7 219.2,140.7 222.4,143.7 225.5,146.8 228.6,149.8 231.7,152.8 234.8,155.9 238.0,158.9 241.1,161.9 244.2,165.0 247.3,168.0" fill="none" stroke="#1a1a19" stroke-width="2" stroke-dasharray="5 3" opacity="0.75"><title>Soll: Triangular(7, 28, 80)</title></polyline><line x1="42" y1="168" x2="350" y2="168" stroke="#5c5b52" stroke-width="1"/><text x="42" y="182" font-size="10" text-anchor="middle" fill="#5c5b52">0</text><text x="119" y="182" font-size="10" text-anchor="middle" fill="#5c5b52">30</text><text x="196" y="182" font-size="10" text-anchor="middle" fill="#5c5b52">60</text><text x="273" y="182" font-size="10" text-anchor="middle" fill="#5c5b52">90</text><text x="350" y="182" font-size="10" text-anchor="middle" fill="#5c5b52">120</text></g><g transform="translate(390,0)"><text x="42" y="12" font-size="12" font-weight="600" fill="#1a1a19">Diagnose → Therapiebeginn (RP/RT)</text><text x="42" y="198" font-size="10" fill="#5c5b52">n=69 · median 23.0 Tage · x: Tage · gestrichelt = Soll</text><text x="42" y="210" font-size="10" fill="#5c5b52">&gt;120 Tage ausgeblendet: 18 (AS-Konvertierer)</text><rect x="55.8" y="160.4" width="10.8" height="7.6" rx="2" fill="#2a78d6"><title>5.0–10.0 Tage: 1 Pat.</title></rect><rect x="68.7" y="122.5" width="10.8" height="45.5" rx="2" fill="#2a78d6"><title>10.0–15.0 Tage: 6 Pat.</title></rect><rect x="81.5" y="24.0" width="10.8" height="144.0" rx="2" fill="#2a78d6"><title>15.0–20.0 Tage: 19 Pat.</title></rect><rect x="94.3" y="77.1" width="10.8" height="90.9" rx="2" fill="#2a78d6"><title>20.0–25.0 Tage: 12 Pat.</title></rect><rect x="107.2" y="92.2" width="10.8" height="75.8" rx="2" fill="#2a78d6"><title>25.0–30.0 Tage: 10 Pat.</title></rect><rect x="120.0" y="99.8" width="10.8" height="68.2" rx="2" fill="#2a78d6"><title>30.0–35.0 Tage: 9 Pat.</title></rect><rect x="132.8" y="122.5" width="10.8" height="45.5" rx="2" fill="#2a78d6"><title>35.0–40.0 Tage: 6 Pat.</title></rect><rect x="145.7" y="137.7" width="10.8" height="30.3" rx="2" fill="#2a78d6"><title>40.0–45.0 Tage: 4 Pat.</title></rect><rect x="184.2" y="152.8" width="10.8" height="15.2" rx="2" fill="#2a78d6"><title>55.0–60.0 Tage: 2 Pat.</title></rect><polyline points="54.8,168.0 56.5,161.4 58.3,154.7 60.0,148.1 61.7,141.4 63.4,134.8 65.1,128.1 66.8,121.5 68.5,114.8 70.2,108.2 71.9,101.5 73.7,94.9 75.4,88.2 77.1,81.6 78.8,75.0 80.5,68.3 82.2,61.7 83.9,55.0 85.6,48.4 87.3,41.7 89.1,40.0 90.8,43.2 92.5,46.4 94.2,49.6 95.9,52.8 97.6,56.0 99.3,59.2 101.0,62.4 102.7,65.6 104.5,68.8 106.2,72.0 107.9,75.2 109.6,78.4 111.3,81.6 113.0,84.8 114.7,88.0 116.4,91.2 118.1,94.4 119.9,97.6 121.6,100.8 123.3,104.0 125.0,107.2 126.7,110.4 128.4,113.6 130.1,116.8 131.8,120.0 133.5,123.2 135.3,126.4 137.0,129.6 138.7,132.8 140.4,136.0 142.1,139.2 143.8,142.4 145.5,145.6 147.2,148.8 148.9,152.0 150.7,155.2 152.4,158.4 154.1,161.6 155.8,164.8 157.5,168.0" fill="none" stroke="#1a1a19" stroke-width="2" stroke-dasharray="5 3" opacity="0.75"><title>Soll: Triangular(5, 18, 45)</title></polyline><line x1="224.2" y1="20" x2="224.2" y2="168" stroke="#1a1a19" stroke-width="1.5" opacity="0.55"/><text x="228.2" y="32" font-size="10" fill="#5c5b52">US-Anker: median 71 d Diagnose→Therapie</text><line x1="42" y1="168" x2="350" y2="168" stroke="#5c5b52" stroke-width="1"/><text x="42" y="182" font-size="10" text-anchor="middle" fill="#5c5b52">0</text><text x="119" y="182" font-size="10" text-anchor="middle" fill="#5c5b52">30</text><text x="196" y="182" font-size="10" text-anchor="middle" fill="#5c5b52">60</text><text x="273" y="182" font-size="10" text-anchor="middle" fill="#5c5b52">90</text><text x="350" y="182" font-size="10" text-anchor="middle" fill="#5c5b52">120</text></g><g transform="translate(780,0)"><text x="42" y="12" font-size="12" font-weight="600" fill="#1a1a19">Biopsie → Radikale Prostatektomie</text><text x="42" y="198" font-size="10" fill="#5c5b52">n=42 · median 22.0 Tage · x: Tage</text><text x="42" y="210" font-size="10" fill="#5c5b52">&gt;200 Tage ausgeblendet: 14 (AS-Konvertierer)</text><rect x="43.0" y="156.9" width="10.8" height="11.1" rx="2" fill="#2a78d6"><title>0.0–8.3 Tage: 1 Pat.</title></rect><rect x="55.8" y="46.2" width="10.8" height="121.8" rx="2" fill="#2a78d6"><title>8.3–16.7 Tage: 11 Pat.</title></rect><rect x="68.7" y="24.0" width="10.8" height="144.0" rx="2" fill="#2a78d6"><title>16.7–25.0 Tage: 13 Pat.</title></rect><rect x="81.5" y="68.3" width="10.8" height="99.7" rx="2" fill="#2a78d6"><title>25.0–33.3 Tage: 9 Pat.</title></rect><rect x="94.3" y="101.5" width="10.8" height="66.5" rx="2" fill="#2a78d6"><title>33.3–41.7 Tage: 6 Pat.</title></rect><rect x="120.0" y="156.9" width="10.8" height="11.1" rx="2" fill="#2a78d6"><title>50.0–58.3 Tage: 1 Pat.</title></rect><rect x="132.8" y="156.9" width="10.8" height="11.1" rx="2" fill="#2a78d6"><title>58.3–66.7 Tage: 1 Pat.</title></rect><line x1="160.6" y1="20" x2="160.6" y2="168" stroke="#1a1a19" stroke-width="1.5" opacity="0.55"/><text x="164.6" y="32" font-size="10" fill="#5c5b52">Literatur-Anker: median 77 d (IQR 55–107)</text><line x1="42" y1="168" x2="350" y2="168" stroke="#5c5b52" stroke-width="1"/><text x="42" y="182" font-size="10" text-anchor="middle" fill="#5c5b52">0</text><text x="119" y="182" font-size="10" text-anchor="middle" fill="#5c5b52">50</text><text x="196" y="182" font-size="10" text-anchor="middle" fill="#5c5b52">100</text><text x="273" y="182" font-size="10" text-anchor="middle" fill="#5c5b52">150</text><text x="350" y="182" font-size="10" text-anchor="middle" fill="#5c5b52">200</text></g><g transform="translate(0,265)"><text x="42" y="12" font-size="12" font-weight="600" fill="#1a1a19">Active Surveillance → definitive Therapie</text><text x="42" y="198" font-size="10" fill="#5c5b52">n=13 · median 3.0 Jahre · x: Jahre · gestrichelt = Soll</text><rect x="81.5" y="139.2" width="10.8" height="28.8" rx="2" fill="#2a78d6"><title>0.8–1.0 Jahre: 1 Pat.</title></rect><rect x="132.8" y="52.8" width="10.8" height="115.2" rx="2" fill="#2a78d6"><title>1.8–2.0 Jahre: 4 Pat.</title></rect><rect x="145.7" y="139.2" width="10.8" height="28.8" rx="2" fill="#2a78d6"><title>2.0–2.2 Jahre: 1 Pat.</title></rect><rect x="184.2" y="24.0" width="10.8" height="144.0" rx="2" fill="#2a78d6"><title>2.8–3.0 Jahre: 5 Pat.</title></rect><rect x="235.5" y="110.4" width="10.8" height="57.6" rx="2" fill="#2a78d6"><title>3.8–4.0 Jahre: 2 Pat.</title></rect><polyline points="93.3,168.0 96.8,163.7 100.2,159.4 103.6,155.0 107.0,150.7 110.4,146.4 113.9,142.1 117.3,137.8 120.7,133.4 124.1,129.1 127.6,124.8 131.0,120.5 134.4,116.2 137.8,111.8 141.2,107.5 144.7,103.2 148.1,98.9 151.5,94.6 154.9,90.2 158.4,85.9 161.8,81.6 165.2,77.3 168.6,73.0 172.0,68.6 175.5,64.3 178.9,60.0 182.3,55.7 185.7,51.4 189.2,47.0 192.6,42.7 196.0,38.4 199.4,42.7 202.8,47.0 206.3,51.4 209.7,55.7 213.1,60.0 216.5,64.3 220.0,68.6 223.4,73.0 226.8,77.3 230.2,81.6 233.6,85.9 237.1,90.2 240.5,94.6 243.9,98.9 247.3,103.2 250.8,107.5 254.2,111.8 257.6,116.2 261.0,120.5 264.4,124.8 267.9,129.1 271.3,133.4 274.7,137.8 278.1,142.1 281.6,146.4 285.0,150.7 288.4,155.0 291.8,159.4 295.2,163.7 298.7,168.0" fill="none" stroke="#1a1a19" stroke-width="2" stroke-dasharray="5 3" opacity="0.75"><title>Soll: Triangular(1, 3, 5)</title></polyline><line x1="42" y1="168" x2="350" y2="168" stroke="#5c5b52" stroke-width="1"/><text x="42" y="182" font-size="10" text-anchor="middle" fill="#5c5b52">0</text><text x="93" y="182" font-size="10" text-anchor="middle" fill="#5c5b52">1</text><text x="145" y="182" font-size="10" text-anchor="middle" fill="#5c5b52">2</text><text x="196" y="182" font-size="10" text-anchor="middle" fill="#5c5b52">3</text><text x="247" y="182" font-size="10" text-anchor="middle" fill="#5c5b52">4</text><text x="299" y="182" font-size="10" text-anchor="middle" fill="#5c5b52">5</text><text x="350" y="182" font-size="10" text-anchor="middle" fill="#5c5b52">6</text></g><g transform="translate(390,265)"><text x="42" y="12" font-size="12" font-weight="600" fill="#1a1a19">Kurative Therapie → biochemisches Rezidiv</text><text x="42" y="198" font-size="10" fill="#5c5b52">n=15 · median 2.0 Jahre · x: Jahre · gestrichelt = Soll</text><rect x="81.5" y="24.0" width="10.8" height="144.0" rx="2" fill="#2a78d6"><title>0.8–1.0 Jahre: 5 Pat.</title></rect><rect x="94.3" y="110.4" width="10.8" height="57.6" rx="2" fill="#2a78d6"><title>1.0–1.2 Jahre: 2 Pat.</title></rect><rect x="132.8" y="24.0" width="10.8" height="144.0" rx="2" fill="#2a78d6"><title>1.8–2.0 Jahre: 5 Pat.</title></rect><rect x="145.7" y="139.2" width="10.8" height="28.8" rx="2" fill="#2a78d6"><title>2.0–2.2 Jahre: 1 Pat.</title></rect><rect x="184.2" y="110.4" width="10.8" height="57.6" rx="2" fill="#2a78d6"><title>2.8–3.0 Jahre: 2 Pat.</title></rect><polyline points="93.3,168.0 95.9,161.5 98.5,155.0 101.0,148.6 103.6,142.1 106.2,135.6 108.7,129.1 111.3,122.6 113.9,116.2 116.4,109.7 119.0,103.2 121.6,96.7 124.1,90.2 126.7,83.8 129.3,77.3 131.8,70.8 134.4,64.3 137.0,57.8 139.5,51.4 142.1,44.9 144.7,38.4 147.2,41.6 149.8,44.9 152.4,48.1 154.9,51.4 157.5,54.6 160.1,57.8 162.6,61.1 165.2,64.3 167.8,67.6 170.3,70.8 172.9,74.0 175.5,77.3 178.0,80.5 180.6,83.8 183.2,87.0 185.7,90.2 188.3,93.5 190.9,96.7 193.4,100.0 196.0,103.2 198.6,106.4 201.1,109.7 203.7,112.9 206.3,116.2 208.8,119.4 211.4,122.6 214.0,125.9 216.5,129.1 219.1,132.4 221.7,135.6 224.2,138.8 226.8,142.1 229.4,145.3 231.9,148.6 234.5,151.8 237.1,155.0 239.6,158.3 242.2,161.5 244.8,164.8 247.3,168.0" fill="none" stroke="#1a1a19" stroke-width="2" stroke-dasharray="5 3" opacity="0.75"><title>Soll: Triangular(1, 2, 4)</title></polyline><line x1="170.3" y1="20" x2="170.3" y2="168" stroke="#1a1a19" stroke-width="1.5" opacity="0.55"/><text x="174.3" y="32" font-size="10" fill="#5c5b52">Literatur: median 2,5 J (IQR 0,9–5,5)</text><line x1="42" y1="168" x2="350" y2="168" stroke="#5c5b52" stroke-width="1"/><text x="42" y="182" font-size="10" text-anchor="middle" fill="#5c5b52">0</text><text x="93" y="182" font-size="10" text-anchor="middle" fill="#5c5b52">1</text><text x="145" y="182" font-size="10" text-anchor="middle" fill="#5c5b52">2</text><text x="196" y="182" font-size="10" text-anchor="middle" fill="#5c5b52">3</text><text x="247" y="182" font-size="10" text-anchor="middle" fill="#5c5b52">4</text><text x="299" y="182" font-size="10" text-anchor="middle" fill="#5c5b52">5</text><text x="350" y="182" font-size="10" text-anchor="middle" fill="#5c5b52">6</text></g><g transform="translate(780,265)"><text x="42" y="12" font-size="12" font-weight="600" fill="#1a1a19">ADT-Start → Zweitlinie (mCRPC-Proxy)</text><text x="42" y="198" font-size="10" fill="#5c5b52">n=2 · median 1.5 Jahre · x: Jahre · gestrichelt = Soll</text><rect x="107.2" y="24.0" width="10.8" height="144.0" rx="2" fill="#2a78d6"><title>0.8–1.0 Jahre: 1 Pat.</title></rect><rect x="184.2" y="24.0" width="10.8" height="144.0" rx="2" fill="#2a78d6"><title>1.8–2.0 Jahre: 1 Pat.</title></rect><polyline points="119.0,168.0 121.6,159.4 124.1,150.7 126.7,142.1 129.3,133.4 131.8,124.8 134.4,116.2 137.0,107.5 139.5,98.9 142.1,90.2 144.7,81.6 147.2,73.0 149.8,64.3 152.4,55.7 154.9,47.0 157.5,38.4 160.1,41.3 162.6,44.2 165.2,47.0 167.8,49.9 170.3,52.8 172.9,55.7 175.5,58.6 178.0,61.4 180.6,64.3 183.2,67.2 185.7,70.1 188.3,73.0 190.9,75.8 193.4,78.7 196.0,81.6 198.6,84.5 201.1,87.4 203.7,90.2 206.3,93.1 208.8,96.0 211.4,98.9 214.0,101.8 216.5,104.6 219.1,107.5 221.7,110.4 224.2,113.3 226.8,116.2 229.4,119.0 231.9,121.9 234.5,124.8 237.1,127.7 239.6,130.6 242.2,133.4 244.8,136.3 247.3,139.2 249.9,142.1 252.5,145.0 255.0,147.8 257.6,150.7 260.2,153.6 262.7,156.5 265.3,159.4 267.9,162.2 270.4,165.1 273.0,168.0" fill="none" stroke="#1a1a19" stroke-width="2" stroke-dasharray="5 3" opacity="0.75"><title>Soll: Triangular(1, 1.5, 3)</title></polyline><line x1="176.8" y1="20" x2="176.8" y2="168" stroke="#1a1a19" stroke-width="1.5" opacity="0.55"/><text x="180.8" y="32" font-size="10" fill="#5c5b52">Frankfurt-Kohorte: median 21 Mo</text><line x1="42" y1="168" x2="350" y2="168" stroke="#5c5b52" stroke-width="1"/><text x="42" y="182" font-size="10" text-anchor="middle" fill="#5c5b52">0</text><text x="119" y="182" font-size="10" text-anchor="middle" fill="#5c5b52">1</text><text x="196" y="182" font-size="10" text-anchor="middle" fill="#5c5b52">2</text><text x="273" y="182" font-size="10" text-anchor="middle" fill="#5c5b52">3</text><text x="350" y="182" font-size="10" text-anchor="middle" fill="#5c5b52">4</text></g></svg>